<svg fill="none" height="24" viewBox="0 0 24 24" width="24" xmlns="http://www.w3.org/2000/svg"><path d="m10.1437 6.62759c.7866-1.96099 1.1799-2.94149 1.8563-2.94149.6763 0 1.0696.9805 1.8562 2.9415l.0366.09131c.4444 1.10787.6666 1.6618 1.1195 1.99849.4528.33669 1.0473.38993 2.2362.4964l.2149.01925c1.9458.17427 2.9188.2614 3.1269.88035.2082.619-.5143 1.2764-1.9594 2.591l-.4822.4388c-.7315.6655-1.0973.9983-1.2678 1.4344-.0318.0814-.0582.1647-.0791.2495-.1121.4547-.005.9374.2093 1.9029l.0666.3005c.3937 1.7744.5905 2.6615.2469 3.0442-.1285.143-.2954.2459-.4808.2965-.4962.1354-1.2007-.4386-2.6096-1.5867-.9252-.7539-1.3878-1.1308-1.9189-1.2156-.2089-.0334-.4218-.0334-.6307 0-.5311.0848-.9937.4617-1.91883 1.2156-1.40896 1.1481-2.11343 1.7221-2.60963 1.5867-.18542-.0506-.35233-.1535-.48076-.2965-.34367-.3827-.14684-1.2698.24684-3.0442l.06667-.3005c.21421-.9655.32132-1.4482.20926-1.9029-.0209-.0848-.04734-.1681-.07914-.2495-.17047-.4361-.53622-.7689-1.26773-1.4344l-.48228-.4388c-1.44505-1.3146-2.16757-1.972-1.95939-2.591.20818-.61895 1.18109-.70608 3.1269-.88035l.21494-.01925c1.18891-.10647 1.78337-.15971 2.23622-.4964s.67505-.89062 1.11943-1.99849z" fill="#2a4157" fill-opacity=".24" stroke="#222" stroke-width="1.4"/></svg>